<?xml version="1.0" standalone="no"?><!DOCTYPE svg PUBLIC "-//W3C//DTD SVG 1.1//EN" "http://www.w3.org/Graphics/SVG/1.1/DTD/svg11.dtd"><svg width="200" height="200" viewBox="0 0 200 200" version="1.1" xmlns="http://www.w3.org/2000/svg" xmlns:xlink="http://www.w3.org/1999/xlink"><defs><style type="text/css"><![CDATA[

]]></style></defs><g class="transform-group"><g transform="scale(0.1953125, 0.1953125)"><path d="M819.277874 129.467677 199.746812 129.467677c-40.152489 0-72.707952 32.555463-72.707952 72.708975l0 619.531062c0 40.164768 32.555463 72.707952 72.707952 72.707952l619.531062 0c40.164768 0 72.708975-32.543184 72.708975-72.707952L891.986849 202.176652C891.986849 162.02314 859.442642 129.467677 819.277874 129.467677zM267.592013 696.591135c-19.703761 0-35.673477-15.975856-35.673477-35.679617s15.969717-35.667338 35.673477-35.667338 35.673477 15.9646 35.673477 35.667338S287.295773 696.591135 267.592013 696.591135zM267.592013 547.624359c-19.703761 0-35.673477-15.975856-35.673477-35.679617s15.969717-35.667338 35.673477-35.667338 35.673477 15.9646 35.673477 35.667338S287.295773 547.624359 267.592013 547.624359zM267.592013 398.656559c-19.703761 0-35.673477-15.975856-35.673477-35.679617s15.969717-35.667338 35.673477-35.667338 35.673477 15.9646 35.673477 35.667338S287.295773 398.656559 267.592013 398.656559zM751.433696 694.815699 382.529765 694.815699c-19.715017 0-35.679617-15.975856-35.679617-35.679617s15.9646-35.667338 35.679617-35.667338l368.903931 0c19.703761 0 35.678594 15.9646 35.678594 35.667338S771.137457 694.815699 751.433696 694.815699zM751.433696 547.624359 382.529765 547.624359c-19.715017 0-35.679617-15.975856-35.679617-35.679617s15.9646-35.667338 35.679617-35.667338l368.903931 0c19.703761 0 35.678594 15.9646 35.678594 35.667338S771.137457 547.624359 751.433696 547.624359zM751.433696 398.656559 382.529765 398.656559c-19.715017 0-35.679617-15.975856-35.679617-35.679617s15.9646-35.667338 35.679617-35.667338l368.903931 0c19.703761 0 35.678594 15.9646 35.678594 35.667338S771.137457 398.656559 751.433696 398.656559z" fill="#FFFFFF"></path></g></g></svg>